Coordinates
version=1
nRows=12
nColumns=24
inDegrees=yes

Units are S.I. units (second, meters, Newtons, ...)
Angles are in degrees.

endheader
time	pelvis_tilt	pelvis_list	pelvis_rotation	pelvis_tx	pelvis_ty	pelvis_tz	hip_flexion_r	hip_adduction_r	hip_rotation_r	knee_angle_r	ankle_angle_r	subtalar_angle_r	mtp_angle_r	hip_flexion_l	hip_adduction_l	hip_rotation_l	knee_angle_l	ankle_angle_l	subtalar_angle_l	mtp_angle_l	lumbar_extension	lumbar_bending	lumbar_rotation
      5.22000000	      0.14904662	      1.26397345	     -0.80679024	     -2.56481135	      0.87226695	      0.21520508	    -12.45893536	      2.95514303	     10.20605529	    -16.14403761	     17.34742086	     -0.62468175	      0.00000000	     22.00658461	      2.57858341	     -1.89144499	     -4.04767363	      4.59563456	      0.43908380	      0.00000000	    -22.89195229	     -2.12164965	     -5.17407295
      5.23000000	      0.13924533	      1.35511267	     -0.55041011	     -2.55180252	      0.87140545	      0.21412438	    -12.52948185	      2.80757131	      8.92211144	    -17.63467883	     16.85868674	      0.85099170	      0.00000000	     22.39788444	      2.92344183	     -0.80778966	     -6.27455177	      4.51791521	     -0.00432499	      0.00000000	    -22.61076500	     -2.27825864	     -5.44791721
      5.24000000	      0.19084756	      1.45565993	     -0.29712324	     -2.53858086	      0.87070878	      0.21288584	    -12.54770701	      2.59392921	      7.41635187	    -19.32071555	     16.17343629	      2.54245425	      0.00000000	     22.68425647	      3.31779841	      0.51281330	     -8.53100590	      4.17904180	     -0.57935746	      0.00000000	    -22.39939405	     -2.44576685	     -5.66470204
      5.25000000	      0.27121751	      1.57587772	     -0.07124797	     -2.52516347	      0.87015482	      0.21157309	    -12.44366668	      2.30035274	      5.73544791	    -21.24826204	     15.18191236	      4.25495810	      0.00000000	     22.89615676	      3.76709562	      1.93463471	    -10.74739524	      3.71962779	     -1.24777279	      0.00000000	    -22.21307074	     -2.64907290	     -5.87462265
      5.26000000	      0.38901706	      1.73151422	      0.13471981	     -2.51164519	      0.86980184	      0.21017747	    -12.21512645	      1.90416787	      3.97029425	    -23.41815545	     13.83051356	      5.91733400	      0.00000000	     23.03072370	      4.29101233	      3.41997344	    -12.89624055	      3.21191574	     -1.95370861	      0.00000000	    -22.08971005	     -2.88852208	     -6.08959744
      5.27000000	      0.56251634	      1.92871281	      0.32334968	     -2.49808053	      0.86965949	      0.20874763	    -11.85569559	      1.40309150	      2.19616515	    -25.86882937	     12.07990029	      7.42712651	      0.00000000	     23.06165653	      4.89784604	      4.92370504	    -14.95295501	      2.80452128	     -2.76825964	      0.00000000	    -22.05449046	     -3.18042289	     -6.32383900
      5.28000000	      0.78872552	      2.16699941	      0.48243993	     -2.48454409	      0.86971554	      0.20732701	    -11.34957240	      0.79856653	      0.50223443	    -28.60009495	      9.90336935	      8.69085398	      0.00000000	     22.98776936	      5.57930240	      6.38052744	    -16.91760552	      2.60553422	     -3.69701610	      0.00000000	    -22.11527180	     -3.51701219	     -6.58621803
      5.29000000	      1.05851994	      2.43201518	      0.60436854	     -2.47113360	      0.86993522	      0.20596421	    -10.67298249	      0.11324112	     -1.02863975	    -31.60954247	      7.31078552	      9.66292400	      0.00000000	     22.81632062	      6.30424776	      7.68983538	    -18.79430685	      2.70570097	     -4.66278033	      0.00000000	    -22.27314104	     -3.87900992	     -6.87055629
      5.30000000	      1.34385699	      2.73669767	      0.67318197	     -2.45779612	      0.87024309	      0.20472438	     -9.80870947	     -0.65521953	     -2.36811015	    -34.85274674	      4.31125707	     10.16668843	      0.00000000	     22.53071926	      7.07003361	      8.83081633	    -20.52046288	      3.12552819	     -5.75941111	      0.00000000	    -22.45511793	     -4.28323716	     -7.19577930
      5.31000000	      1.62282701	      3.08755312	      0.66605584	     -2.44468457	      0.87061299	      0.20373722	     -8.72215294	     -1.49252659	     -3.43502136	    -38.30470017	      1.00395363	     10.19734466	      0.00000000	     22.15799466	      7.83617663	      9.67182687	    -22.08346180	      3.83981064	     -6.73494113	      0.00000000	    -22.66958429	     -4.76340946	     -7.53814786
      5.32000000	      1.90897852	      3.48588538	      0.55661402	     -2.43178266	      0.87096108	      0.20290508	     -7.44304293	     -2.42945950	     -4.30805177	    -41.91809002	     -2.38230775	      9.81513405	      0.00000000	     21.65532057	      8.59557276	     10.22488026	    -23.42735461	      4.89823841	     -7.61914742	      0.00000000	    -22.89605797	     -5.27860898	     -7.86500223
      5.33000000	      2.01022195	      3.85950250	      0.50573949	     -2.41929250	      0.87111670	      0.20203077	     -5.79374891	     -3.33171902	     -5.02609842	    -45.60176328	     -5.80703938	      8.99224324	      0.00000000	     21.23636326	      9.34138927	     10.82040136	    -24.54241232	      5.90757403	     -8.62831331	      0.00000000	    -22.96410636	     -5.71678218	     -8.26741559
